<?xml version="1.0" encoding="utf-8"?>
<!-- Generator: Adobe Illustrator 24.0.1, SVG Export Plug-In . SVG Version: 6.00 Build 0)  -->
<svg version="1.1" id="Слой_1" xmlns="http://www.w3.org/2000/svg" xmlns:xlink="http://www.w3.org/1999/xlink" x="0px" y="0px"
	 viewBox="0 0 512 512" style="enable-background:new 0 0 512 512;" xml:space="preserve">
<style type="text/css">
	.st0{fill:#F7502F;}
	.st1{fill:#FDD82E;}
</style>
<path class="st0" d="M417,322.5c0,80.3-72.9,145.5-162.7,145.5S91.6,402.8,91.6,322.5c0-63.8,44.1-118.4,44.3-174.5
	c18,15.5,33.6,33.1,46.5,52.3c27.8-59,73.1-78.5,106.9-139c35.6,48.1,57,103.8,61.9,161.7c0,0,15.2-43.8,57.3-59
	C399.8,226.2,417,277,417,322.5z"/>
<path class="st1" d="M330.9,357.7c-0.7,38.4-35.5,69.1-77.8,68.5c-41.4-0.6-74.8-30.9-75.5-68.5c0-30.1,19.2-60.4,19.3-86.8
	c12.5,4.2,21.4,16.5,30.9,31.9c9.5-37.1,27.9-36.8,43-68.1c16.9,23.2,25.8,50.4,25.8,78.2c0,0,10.3-23.1,34.4-32.5
	C326,318,330.9,336.2,330.9,357.7L330.9,357.7z"/>
</svg>
