<?xml version="1.0" encoding="utf-8"?>
<!-- Generator: Adobe Illustrator 25.2.3, SVG Export Plug-In . SVG Version: 6.00 Build 0)  -->
<svg version="1.1" id="Layer_1" xmlns="http://www.w3.org/2000/svg" xmlns:xlink="http://www.w3.org/1999/xlink" x="0px" y="0px"
	 viewBox="0 0 708.7 708.7" style="enable-background:new 0 0 708.7 708.7;" xml:space="preserve">
<style type="text/css">
	.st0{fill:#3AAA35;}
	.st1{fill:#FFFFFF;}
	.st2{clip-path:url(#SVGID_2_);fill:#005127;}
	.st3{clip-path:url(#SVGID_2_);fill:#34A936;}
	.st4{clip-path:url(#SVGID_2_);fill:#71B959;}
	.st5{clip-path:url(#SVGID_2_);fill:#9DCA84;}
</style>
<path class="st0" d="M-117.4,222.2"/>
<g>
	<path class="st1" d="M164.2,546.5c-6.2-3.2-13.2-4.9-21-4.9c-7.2,0-13.7,1.6-19.5,4.7c-4.1,2.2-7.6,5-10.6,8.3v-5.6
		c0-2-0.6-3.6-1.7-4.7c-1.2-1.2-2.7-1.7-4.5-1.7c-2,0-3.6,0.6-4.7,1.7c-1.2,1.2-1.7,2.7-1.7,4.7v77.7c0,1.9,0.6,3.4,1.7,4.5
		c1.2,1.2,2.7,1.7,4.7,1.7c1.9,0,3.4-0.6,4.5-1.7c1.2-1.2,1.7-2.7,1.7-4.5v-48.9c0-4.6,1.3-8.8,3.8-12.4c2.5-3.6,6-6.5,10.3-8.6
		c4.4-2.1,9.2-3.1,14.6-3.1c5.6,0,10.7,1.1,15.1,3.3c4.5,2.2,8,5.5,10.6,9.9c2.6,4.4,3.9,10,3.9,16.9v43c0,1.8,0.6,3.3,1.8,4.5
		c1.2,1.2,2.8,1.8,4.6,1.8c1.8,0,3.2-0.6,4.5-1.8c1.2-1.2,1.8-2.7,1.8-4.5v-43c0-9-1.8-16.7-5.4-23
		C175.3,554.5,170.4,549.7,164.2,546.5z"/>
	<path class="st1" d="M272.7,547.5c-6.2-3.8-13.5-5.7-21.9-5.7c-8.5,0-16,2-22.5,5.9c-6.5,4-11.6,9.4-15.3,16.3
		c-3.7,6.9-5.5,14.8-5.5,23.9c0,8.9,2,16.9,5.9,23.8c3.9,6.9,9.3,12.4,16.2,16.3c6.9,3.9,14.8,5.9,23.7,5.9c5.2,0,10.6-1,16.2-3.1
		c5.6-2,10.2-4.6,13.9-7.7c1.3-1.1,2-2.4,1.9-4c-0.1-1.5-0.8-3-2.2-4.3c-1.1-0.9-2.4-1.3-4-1.2c-1.5,0.1-2.9,0.6-4.1,1.6
		c-2.4,2.1-5.6,3.8-9.7,5.2c-4,1.4-8,2.1-12,2.1c-6.6,0-12.4-1.5-17.5-4.5c-5.1-3-9.1-7-12-12.2c-2.3-4.1-3.7-8.7-4.2-13.7h66.7
		c1.8,0,3.2-0.5,4.3-1.6c1.1-1,1.7-2.5,1.7-4.2c0-8.6-1.7-16.2-5.1-23C283.8,556.5,278.9,551.3,272.7,547.5z M234.3,557.6
		c4.7-3,10.2-4.5,16.5-4.5c6.2,0,11.5,1.4,15.9,4.3c4.5,2.9,7.9,6.8,10.3,11.9c1.8,3.7,2.8,7.7,3.3,12.1h-60.5
		c0.6-4.2,1.7-8,3.4-11.5C225.9,564.7,229.6,560.6,234.3,557.6z"/>
	<path class="st1" d="M409.5,542.6c-3,0-5,1.6-6.1,4.8l-21,64.1l-19-63.9c-0.4-1.5-1.2-2.8-2.2-3.6c-1-0.9-2.4-1.3-4-1.3
		s-3,0.5-4,1.4c-1,0.9-1.8,2.1-2.2,3.6l-19.6,64.3l-21.1-64.5c-0.6-1.7-1.4-2.9-2.5-3.6c-1.1-0.8-2.4-1.2-3.8-1.2
		c-2.3,0-3.9,0.8-4.6,2.4c-0.8,1.6-0.8,3.8-0.2,6.5l25.8,77.3c0.4,1.2,1.2,2.2,2.3,3c1.1,0.8,2.4,1.2,3.8,1.2c1.3,0,2.5-0.4,3.6-1.1
		c1.1-0.7,1.9-1.7,2.3-3.1l19.8-65.8l19.8,65.8c0.3,1.2,1.1,2.2,2.2,3c1.2,0.8,2.5,1.2,3.9,1.2c1.4,0,2.7-0.4,3.7-1.2
		c1-0.8,1.8-1.8,2.2-3l25.8-77.3c0.9-2.3,0.9-4.4,0-6.2C413.5,543.5,411.9,542.6,409.5,542.6z"/>
	<path class="st1" d="M494,547.8c-6.9-4-14.7-6-23.4-6c-8.7,0-16.5,2-23.5,6c-6.9,4-12.4,9.5-16.4,16.4c-4,6.9-6,14.8-6,23.6
		c0,8.7,2,16.5,5.9,23.5c3.9,6.9,9.2,12.4,15.9,16.4c6.7,4,14.3,6,22.8,6c8,0,15.2-1.8,21.6-5.5c5.1-3,9.4-6.9,12.8-11.6v10.1
		c0,1.9,0.6,3.4,1.8,4.5c1.2,1.2,2.8,1.7,4.6,1.7c1.9,0,3.4-0.6,4.6-1.7c1.2-1.2,1.8-2.7,1.8-4.5v-38.8c-0.1-8.8-2.2-16.7-6.2-23.6
		C506.3,557.3,500.9,551.8,494,547.8z M487.7,617.8c-5,3-10.7,4.5-17.1,4.5c-6.3,0-12-1.5-17-4.5c-5.1-3-9.1-7.1-12.1-12.3
		c-3-5.2-4.5-11.1-4.5-17.6c0-6.6,1.5-12.5,4.5-17.7c3-5.2,7-9.3,12.1-12.3c5.1-3,10.7-4.5,17-4.5c6.4,0,12.1,1.5,17.1,4.5
		c5,3,9,7.1,11.9,12.3c2.9,5.2,4.4,11.1,4.4,17.7c0,6.5-1.5,12.4-4.4,17.6C496.7,610.7,492.7,614.8,487.7,617.8z"/>
	<path class="st1" d="M612,543.1c-3.6-1.5-6.3-0.5-7.9,3l-30.7,67.8l-32.2-67.9c-0.8-1.7-1.9-2.7-3.3-3.2c-1.4-0.5-3-0.4-4.6,0.4
		c-1.7,0.8-2.8,1.9-3.3,3.3c-0.6,1.4-0.4,3,0.3,4.6l36.8,76.3c0,0,0.1,0.1,0.1,0.1l-16.4,36.2c-1.7,3.6-0.6,6.3,3.1,7.9
		c1.1,0.4,2.1,0.7,3,0.7c2.1,0,3.7-1.3,4.8-3.8l53.5-117.7C616.8,547.2,615.8,544.6,612,543.1z"/>
</g>
<g>
	<defs>
		<path id="SVGID_1_" d="M600.1,260.8c0-139.4-113-252.4-252.4-252.4c-139.4,0-252.4,113-252.4,252.4s113,252.4,252.4,252.4
			C487.1,513.3,600.1,400.2,600.1,260.8z"/>
	</defs>
	<clipPath id="SVGID_2_">
		<use xlink:href="#SVGID_1_"  style="overflow:visible;"/>
	</clipPath>
	<polygon class="st2" points="720.3,513.3 354.8,47.6 -17.7,513.3 	"/>
	<polygon class="st3" points="563,513.3 275.3,146.7 -17.9,513.3 	"/>
	<polygon class="st4" points="720.3,513.3 480.6,207.9 236.3,513.3 	"/>
	<polygon class="st5" points="397.9,513.3 191.9,250.8 -18,513.3 	"/>
</g>
</svg>
